<?xml version="1.0" encoding="utf-8"?>
<!-- Generator: Adobe Illustrator 17.1.0, SVG Export Plug-In . SVG Version: 6.00 Build 0)  -->
<!DOCTYPE svg PUBLIC "-//W3C//DTD SVG 1.1//EN" "http://www.w3.org/Graphics/SVG/1.1/DTD/svg11.dtd">
<svg version="1.1" id="Layer_1" xmlns="http://www.w3.org/2000/svg" xmlns:xlink="http://www.w3.org/1999/xlink" x="0px" y="0px"
	 width="282.9px" height="60px" viewBox="0 0 282.9 60" enable-background="new 0 0 282.9 60" xml:space="preserve">
<g>
	<path fill="#444444" d="M128,14.4h8.6V16H128V14.4z M128,9.1h8.6v1.7H128V9.1z M128,3.9h8.6v1.7H128C128,5.6,128,3.9,128,3.9z
		 M125.4,3v3.5h-0.9V3.9h-0.9V3H125.4z M124.5,10.1v0.7h1.7v0.9h-2.6v-2l1.7-0.8V8.2h-1.7V7.4h2.6v2L124.5,10.1z M126.2,12.6V17
		h-2.6v-0.9h1.7v-0.8h-1.7v-0.9h1.7v-0.9h-1.7v-0.9L126.2,12.6L126.2,12.6z"/>
	<g>
		<path fill="#444444" d="M204.3,7.4l4.5,4.6V9.3c1.3,0,4.7,0,4.7,3.7c0,2-1.3,3.6-3.1,4c2.7-0.4,4.9-2.9,4.9-5.9
			c0-5.7-5.8-5.7-6.6-5.7V3L204.3,7.4z"/>
	</g>
	<g>
		<path fill="#444444" d="M235.3,7.4l-4.5,4.6V9.3c-1.3,0-4.7,0-4.7,3.7c0,2,1.3,3.6,3.1,4c-2.7-0.4-4.9-2.9-4.9-5.9
			c0-5.7,5.8-5.7,6.6-5.7V3L235.3,7.4z"/>
	</g>
	<path fill="#444444" d="M57.6,4L57.6,4c-1.3-1.3-3.5-1.3-4.7,0l-3,3c-1.3,1.3-1.3,3.4,0,4.7l0,0c0.1,0.1,0.2,0.2,0.4,0.3l1.1-1.1
		c-0.1-0.1-0.3-0.2-0.4-0.3l0,0c-0.7-0.7-0.7-1.8,0-2.5l3-3c0.7-0.7,1.8-0.7,2.5,0l0,0c0.7,0.7,0.7,1.8,0,2.5L55.1,9
		c0.2,0.6,0.4,1.2,0.4,1.8l2.1-2.1C58.8,7.4,58.8,5.3,57.6,4L57.6,4z M53.2,8.3C53.1,8.2,53,8.1,52.9,8l-1.1,1.1
		c0.1,0.1,0.3,0.2,0.4,0.3l0,0c0.7,0.7,0.7,1.8,0,2.5l-3,3c-0.7,0.7-1.8,0.7-2.5,0l0,0c-0.7-0.7-0.7-1.8,0-2.5L48,11
		c-0.2-0.6-0.4-1.2-0.4-1.8l-2.1,2.1c-1.3,1.3-1.3,3.4,0,4.7l0,0c1.3,1.3,3.4,1.3,4.7,0l3-3C54.4,11.8,54.4,9.6,53.2,8.3L53.2,8.3
		L53.2,8.3z"/>
	<path fill="#444444" d="M148.9,3.9h8.7v1.8h-8.7V3.9z M148.9,9.1h8.7v1.8h-8.7V9.1z M148.9,14.4h8.7v1.8h-8.7V14.4z M143.6,4.8
		c0-1,0.8-1.8,1.8-1.8c1,0,1.8,0.8,1.8,1.8s-0.8,1.8-1.8,1.8C144.4,6.5,143.6,5.7,143.6,4.8z M143.6,10c0-1,0.8-1.8,1.8-1.8
		c1,0,1.8,0.8,1.8,1.8s-0.8,1.8-1.8,1.8S143.6,11,143.6,10z M143.6,15.2c0-1,0.8-1.8,1.8-1.8c1,0,1.8,0.8,1.8,1.8s-0.8,1.8-1.8,1.8
		S143.6,16.2,143.6,15.2z"/>
	<path fill="#444444" d="M65.6,8.5c2,0,3.5,1.5,3.5,3.5s-1.5,3.5-3.5,3.5c-1.9,0-3.5-1.5-3.5-3.5v-0.5c0-3.8,3.1-7,7-7v2
		c-1.3,0-2.6,0.5-3.5,1.5c-0.2,0.2-0.3,0.4-0.5,0.6C65.2,8.5,65.4,8.5,65.6,8.5z M74.6,8.5c2,0,3.5,1.5,3.5,3.5s-1.5,3.5-3.5,3.5
		c-1.9,0-3.5-1.5-3.5-3.5v-0.5c0-3.8,3.2-7,7-7v2c-1.3,0-2.6,0.5-3.5,1.5c-0.2,0.2-0.3,0.4-0.5,0.6C74.2,8.5,74.4,8.5,74.6,8.5z"/>
	<path fill="#C6C6C6" d="M250,3c-3.8,0-7,3.1-7,7s3.2,7,7,7s7-3.1,7-7S253.8,3,250,3z M250.9,14.4h-1.8v-1.8h1.8V14.4z M253.5,10
		l-2.6,1.8h-1.8v-0.9l2.6-1.8V8.2h-4.4V6.5h5.2c0.5,0,0.9,0.4,0.9,0.9V10H253.5z"/>
	<path fill="#444444" d="M13.1,9.6C13.6,8.9,14,8,14,7c0-2.2-1.8-4-4-4H5v14h6c2.2,0,4-1.8,4-4C15,11.5,14.2,10.3,13.1,9.6z M8,5
		h1.6c0.9,0,1.6,0.9,1.6,2s-0.7,2-1.6,2H8V5z M10.5,15H8v-4h2.5c0.9,0,1.7,0.9,1.7,2S11.4,15,10.5,15z"/>
	<path fill="#444444" d="M39.5,3v1h-2l-5,12h2v1h-7v-1h2l5-12h-2V3H39.5z"/>
	<path fill="#444444" d="M86.7,9.2V6.1c0-0.4,0.2-0.8,0.5-1.1c0.3-0.3,0.8-0.4,1.1-0.4V3C86.5,3,85,4.4,85,6.1v2.3
		c0,0.4-0.3,0.8-0.8,0.8h-0.8v1.6h0.8c0.5,0,0.8,0.3,0.8,0.8v2.3c0,1.7,1.5,3.1,3.3,3.1v-1.6c-0.4,0-0.8-0.2-1.1-0.4
		c-0.3-0.3-0.5-0.7-0.5-1.1v-3.1c0-0.4-0.3-0.8-0.8-0.8C86.3,10,86.7,9.7,86.7,9.2L86.7,9.2z"/>
	<g>
		<path fill="#C6C6C6" d="M165.1,12h10v2h-10V12z M162.1,9h16v2h-16V9z M162.1,15h16v2h-16V15z"/>
		<rect x="162.1" y="3" fill="#444444" width="16" height="2"/>
		<rect x="165.1" y="6" fill="#444444" width="10" height="2"/>
	</g>
	<rect x="183.6" y="9" fill="#444444" width="2.3" height="2"/>
	<rect x="187" y="9" fill="#444444" width="2.3" height="2"/>
	<g>
		<path fill="#C6C6C6" d="M186.6,12h10v2h-10V12z M183.6,15h16v2h-16V15z"/>
		<rect x="183.6" y="3" fill="#C6C6C6" width="16" height="2"/>
		<rect x="186.6" y="6" fill="#C6C6C6" width="10" height="2"/>
		<rect x="190.4" y="9" fill="#444444" width="2.3" height="2"/>
		<rect x="193.8" y="9" fill="#444444" width="2.3" height="2"/>
		<rect x="197.2" y="8.9" fill="#444444" width="2.3" height="2"/>
	</g>
	<path fill="#444444" d="M93.6,10.8v3.1c0,0.4-0.2,0.8-0.5,1.1c-0.3,0.3-0.7,0.4-1.1,0.4V17c1.8,0,3.2-1.4,3.2-3.1v-2.3
		c0-0.4,0.3-0.8,0.8-0.8h0.8V9.2h-0.8c-0.5,0-0.8-0.3-0.8-0.8V6.1C95.2,4.4,93.7,3,91.9,3v1.6c0.4,0,0.8,0.2,1.1,0.4
		c0.3,0.3,0.5,0.7,0.5,1.1v3.1c0,0.4,0.3,0.8,0.8,0.8C94,10,93.6,10.3,93.6,10.8L93.6,10.8z"/>
	<path fill="#444444" d="M118.2,4v12h-15V4H118.2 M119.2,3h-17v14h17V3L119.2,3z"/>
	<path fill="#444444" d="M113.9,6.8c0-0.9,0.7-1.6,1.6-1.6c0.9,0,1.6,0.7,1.6,1.6s-0.7,1.6-1.6,1.6C114.7,8.4,113.9,7.7,113.9,6.8z"
		/>
	<polygon fill="#444444" points="117.1,14.8 104.4,14.8 107.5,6.2 111.8,11.6 113.9,10     "/>
	<g>
		<polygon fill="#444444" points="268.5,9.8 267.7,9 265,11.5 267.7,14 268.5,13.2 266.7,11.5         "/>
		<polygon fill="#444444" points="270.4,13.2 271.2,14 274,11.5 271.2,9 270.4,9.8 272.2,11.5         "/>
	</g>
	<polygon fill="#444444" points="271.3,3 271.3,7.7 276,7.7     "/>
	<path fill="#444444" d="M275,6.7V16h-11V4h8.3l-1-1H264c-0.6,0-1,0.5-1,1v12c0,0.5,0.4,1,1,1h11c0.5,0,1-0.5,1-1V7.7L275,6.7z"/>
</g>
<g>
	<path fill="#CECECE" d="M128,34.4h8.6V36H128V34.4z M128,29.1h8.6v1.7H128V29.1z M128,23.9h8.6v1.7H128C128,25.6,128,23.9,128,23.9
		z M125.4,23v3.5h-0.9v-2.6h-0.9V23H125.4z M124.5,30.1v0.7h1.7v0.9h-2.6v-2l1.7-0.8v-0.7h-1.7v-0.8h2.6v2L124.5,30.1z M126.2,32.6
		V37h-2.6v-0.9h1.7v-0.8h-1.7v-0.9h1.7v-0.9h-1.7v-0.9L126.2,32.6L126.2,32.6z"/>
	<g>
		<path fill="#CECECE" d="M204.3,27.4l4.5,4.6v-2.7c1.3,0,4.7,0,4.7,3.7c0,2-1.3,3.6-3.1,4c2.7-0.4,4.9-2.9,4.9-5.9
			c0-5.7-5.8-5.7-6.6-5.7V23L204.3,27.4z"/>
	</g>
	<g>
		<path fill="#CECECE" d="M235.3,27.4l-4.5,4.6v-2.7c-1.3,0-4.7,0-4.7,3.7c0,2,1.3,3.6,3.1,4c-2.7-0.4-4.9-2.9-4.9-5.9
			c0-5.7,5.8-5.7,6.6-5.7V23L235.3,27.4z"/>
	</g>
	<path fill="#CECECE" d="M57.6,24L57.6,24c-1.3-1.3-3.5-1.3-4.7,0l-3,3c-1.3,1.3-1.3,3.4,0,4.7l0,0c0.1,0.1,0.2,0.2,0.4,0.3l1.1-1.1
		c-0.1-0.1-0.3-0.2-0.4-0.3l0,0c-0.7-0.7-0.7-1.8,0-2.5l3-3c0.7-0.7,1.8-0.7,2.5,0l0,0c0.7,0.7,0.7,1.8,0,2.5L55.1,29
		c0.2,0.6,0.4,1.2,0.4,1.8l2.1-2.1C58.8,27.4,58.8,25.3,57.6,24L57.6,24z M53.2,28.3c-0.1-0.1-0.2-0.2-0.3-0.3l-1.1,1.1
		c0.1,0.1,0.3,0.2,0.4,0.3l0,0c0.7,0.7,0.7,1.8,0,2.5l-3,3c-0.7,0.7-1.8,0.7-2.5,0l0,0c-0.7-0.7-0.7-1.8,0-2.5L48,31
		c-0.2-0.6-0.4-1.2-0.4-1.8l-2.1,2.1c-1.3,1.3-1.3,3.4,0,4.7l0,0c1.3,1.3,3.4,1.3,4.7,0l3-3C54.4,31.8,54.4,29.6,53.2,28.3
		L53.2,28.3L53.2,28.3z"/>
	<path fill="#CECECE" d="M148.9,23.9h8.7v1.8h-8.7V23.9z M148.9,29.1h8.7v1.8h-8.7V29.1z M148.9,34.4h8.7v1.8h-8.7V34.4z
		 M143.6,24.8c0-1,0.8-1.8,1.8-1.8c1,0,1.8,0.8,1.8,1.8s-0.8,1.8-1.8,1.8C144.4,26.5,143.6,25.7,143.6,24.8z M143.6,30
		c0-1,0.8-1.8,1.8-1.8c1,0,1.8,0.8,1.8,1.8s-0.8,1.8-1.8,1.8S143.6,31,143.6,30z M143.6,35.2c0-1,0.8-1.8,1.8-1.8
		c1,0,1.8,0.8,1.8,1.8s-0.8,1.8-1.8,1.8S143.6,36.2,143.6,35.2z"/>
	<path fill="#CECECE" d="M65.6,28.5c2,0,3.5,1.5,3.5,3.5s-1.5,3.5-3.5,3.5c-1.9,0-3.5-1.5-3.5-3.5v-0.5c0-3.8,3.1-7,7-7v2
		c-1.3,0-2.6,0.5-3.5,1.5c-0.2,0.2-0.3,0.4-0.5,0.6C65.2,28.5,65.4,28.5,65.6,28.5z M74.6,28.5c2,0,3.5,1.5,3.5,3.5
		s-1.5,3.5-3.5,3.5c-1.9,0-3.5-1.5-3.5-3.5v-0.5c0-3.8,3.2-7,7-7v2c-1.3,0-2.6,0.5-3.5,1.5c-0.2,0.2-0.3,0.4-0.5,0.6
		C74.2,28.5,74.4,28.5,74.6,28.5z"/>
	<path fill="#CECECE" d="M250,23c-3.8,0-7,3.1-7,7s3.2,7,7,7s7-3.1,7-7S253.8,23,250,23z M250.9,34.4h-1.8v-1.8h1.8V34.4z M253.5,30
		l-2.6,1.8h-1.8v-0.9l2.6-1.8v-0.9h-4.4v-1.7h5.2c0.5,0,0.9,0.4,0.9,0.9V30H253.5z"/>
	<path fill="#CECECE" d="M13.1,29.6C13.6,28.9,14,28,14,27c0-2.2-1.8-4-4-4H5v14h6c2.2,0,4-1.8,4-4C15,31.5,14.2,30.3,13.1,29.6z
		 M8,25h1.6c0.9,0,1.6,0.9,1.6,2s-0.7,2-1.6,2H8V25z M10.5,35H8v-4h2.5c0.9,0,1.7,0.9,1.7,2C12.2,34.1,11.4,35,10.5,35z"/>
	<path fill="#CECECE" d="M39.5,23v1h-2l-5,12h2v1h-7v-1h2l5-12h-2v-1H39.5z"/>
	<path fill="#CECECE" d="M86.7,29.2v-3.1c0-0.4,0.2-0.8,0.5-1.1c0.3-0.3,0.8-0.4,1.1-0.4V23c-1.8,0-3.3,1.4-3.3,3.1v2.3
		c0,0.4-0.3,0.8-0.8,0.8h-0.8v1.6h0.8c0.5,0,0.8,0.3,0.8,0.8v2.3c0,1.7,1.5,3.1,3.3,3.1v-1.6c-0.4,0-0.8-0.2-1.1-0.4
		c-0.3-0.3-0.5-0.7-0.5-1.1v-3.1c0-0.4-0.3-0.8-0.8-0.8C86.3,30,86.7,29.7,86.7,29.2L86.7,29.2z"/>
	<g>
		<path fill="#CECECE" d="M165.1,32h10v2h-10V32z M162.1,29h16v2h-16V29z M162.1,35h16v2h-16V35z"/>
		<rect x="162.1" y="23" fill="#CECECE" width="16" height="2"/>
		<rect x="165.1" y="26" fill="#CECECE" width="10" height="2"/>
	</g>
	<rect x="183.6" y="29" fill="#CECECE" width="2.3" height="2"/>
	<rect x="187" y="29" fill="#CECECE" width="2.3" height="2"/>
	<g>
		<path fill="#CECECE" d="M186.6,32h10v2h-10V32z M183.6,35h16v2h-16V35z"/>
		<rect x="183.6" y="23" fill="#CECECE" width="16" height="2"/>
		<rect x="186.6" y="26" fill="#CECECE" width="10" height="2"/>
		<rect x="190.4" y="29" fill="#CECECE" width="2.3" height="2"/>
		<rect x="193.8" y="29" fill="#CECECE" width="2.3" height="2"/>
		<rect x="197.2" y="28.9" fill="#CECECE" width="2.3" height="2"/>
	</g>
	<path fill="#CECECE" d="M93.6,30.8v3.1c0,0.4-0.2,0.8-0.5,1.1c-0.3,0.3-0.7,0.4-1.1,0.4V37c1.8,0,3.2-1.4,3.2-3.1v-2.3
		c0-0.4,0.3-0.8,0.8-0.8h0.8v-1.6h-0.8c-0.5,0-0.8-0.3-0.8-0.8v-2.3c-0.1-1.7-1.6-3.1-3.3-3.1v1.6c0.4,0,0.8,0.2,1.1,0.4
		c0.3,0.3,0.5,0.7,0.5,1.1v3.1c0,0.4,0.3,0.8,0.8,0.8C94,30,93.6,30.3,93.6,30.8L93.6,30.8z"/>
	<path fill="#CECECE" d="M118.2,24v12h-15V24H118.2 M119.2,23h-17v14h17V23L119.2,23z"/>
	<path fill="#CECECE" d="M113.9,26.8c0-0.9,0.7-1.6,1.6-1.6c0.9,0,1.6,0.7,1.6,1.6s-0.7,1.6-1.6,1.6
		C114.7,28.4,113.9,27.7,113.9,26.8z"/>
	<polygon fill="#CECECE" points="117.1,34.8 104.4,34.8 107.5,26.2 111.8,31.6 113.9,30     "/>
	<g>
		<polygon fill="#CECECE" points="268.5,29.8 267.7,29 265,31.5 267.7,34 268.5,33.2 266.7,31.5         "/>
		<polygon fill="#CECECE" points="270.4,33.2 271.2,34 274,31.5 271.2,29 270.4,29.8 272.2,31.5         "/>
	</g>
	<polygon fill="#CECECE" points="271.3,23 271.3,27.7 276,27.7     "/>
	<path fill="#CECECE" d="M275,26.7V36h-11V24h8.3l-1-1H264c-0.6,0-1,0.5-1,1v12c0,0.5,0.4,1,1,1h11c0.5,0,1-0.5,1-1v-8.3L275,26.7z"
		/>
</g>
<g>
	<path fill="#FF9900" d="M128,54.4h8.6V56H128V54.4z M128,49.1h8.6v1.7H128V49.1z M128,43.9h8.6v1.7H128C128,45.6,128,43.9,128,43.9
		z M125.4,43v3.5h-0.9v-2.6h-0.9V43H125.4z M124.5,50.1v0.7h1.7v0.9h-2.6v-2l1.7-0.8v-0.7h-1.7v-0.8h2.6v2L124.5,50.1z M126.2,52.6
		V57h-2.6v-0.9h1.7v-0.8h-1.7v-0.9h1.7v-0.9h-1.7v-0.9L126.2,52.6L126.2,52.6z"/>
	<g>
		<path fill="#FF9900" d="M204.3,47.4l4.5,4.6v-2.7c1.3,0,4.7,0,4.7,3.7c0,2-1.3,3.6-3.1,4c2.7-0.4,4.9-2.9,4.9-5.9
			c0-5.7-5.8-5.7-6.6-5.7V43L204.3,47.4z"/>
	</g>
	<g>
		<path fill="#FF9900" d="M235.3,47.4l-4.5,4.6v-2.7c-1.3,0-4.7,0-4.7,3.7c0,2,1.3,3.6,3.1,4c-2.7-0.4-4.9-2.9-4.9-5.9
			c0-5.7,5.8-5.7,6.6-5.7V43L235.3,47.4z"/>
	</g>
	<path fill="#FF9900" d="M57.6,44L57.6,44c-1.3-1.3-3.5-1.3-4.7,0l-3,3c-1.3,1.3-1.3,3.4,0,4.7l0,0c0.1,0.1,0.2,0.2,0.4,0.3l1.1-1.1
		c-0.1-0.1-0.3-0.2-0.4-0.3l0,0c-0.7-0.7-0.7-1.8,0-2.5l3-3c0.7-0.7,1.8-0.7,2.5,0l0,0c0.7,0.7,0.7,1.8,0,2.5L55.1,49
		c0.2,0.6,0.4,1.2,0.4,1.8l2.1-2.1C58.8,47.4,58.8,45.3,57.6,44L57.6,44z M53.2,48.3c-0.1-0.1-0.2-0.2-0.3-0.3l-1.1,1.1
		c0.1,0.1,0.3,0.2,0.4,0.3l0,0c0.7,0.7,0.7,1.8,0,2.5l-3,3c-0.7,0.7-1.8,0.7-2.5,0l0,0c-0.7-0.7-0.7-1.8,0-2.5L48,51
		c-0.2-0.6-0.4-1.2-0.4-1.8l-2.1,2.1c-1.3,1.3-1.3,3.4,0,4.7l0,0c1.3,1.3,3.4,1.3,4.7,0l3-3C54.4,51.8,54.4,49.6,53.2,48.3
		L53.2,48.3L53.2,48.3z"/>
	<path fill="#FF9900" d="M148.9,43.9h8.7v1.8h-8.7V43.9z M148.9,49.1h8.7v1.8h-8.7V49.1z M148.9,54.4h8.7v1.8h-8.7V54.4z
		 M143.6,44.8c0-1,0.8-1.8,1.8-1.8c1,0,1.8,0.8,1.8,1.8s-0.8,1.8-1.8,1.8C144.4,46.5,143.6,45.7,143.6,44.8z M143.6,50
		c0-1,0.8-1.8,1.8-1.8c1,0,1.8,0.8,1.8,1.8s-0.8,1.8-1.8,1.8S143.6,51,143.6,50z M143.6,55.2c0-1,0.8-1.8,1.8-1.8
		c1,0,1.8,0.8,1.8,1.8s-0.8,1.8-1.8,1.8S143.6,56.2,143.6,55.2z"/>
	<path fill="#FF9900" d="M65.6,48.5c2,0,3.5,1.5,3.5,3.5s-1.5,3.5-3.5,3.5c-1.9,0-3.5-1.5-3.5-3.5v-0.5c0-3.8,3.1-7,7-7v2
		c-1.3,0-2.6,0.5-3.5,1.5c-0.2,0.2-0.3,0.4-0.5,0.6C65.2,48.5,65.4,48.5,65.6,48.5z M74.6,48.5c2,0,3.5,1.5,3.5,3.5
		s-1.5,3.5-3.5,3.5c-1.9,0-3.5-1.5-3.5-3.5v-0.5c0-3.8,3.2-7,7-7v2c-1.3,0-2.6,0.5-3.5,1.5c-0.2,0.2-0.3,0.4-0.5,0.6
		C74.2,48.5,74.4,48.5,74.6,48.5z"/>
	<path fill="#FF9900" d="M250,43c-3.8,0-7,3.1-7,7s3.2,7,7,7s7-3.1,7-7S253.8,43,250,43z M250.9,54.4h-1.8v-1.8h1.8V54.4z M253.5,50
		l-2.6,1.8h-1.8v-0.9l2.6-1.8v-0.9h-4.4v-1.7h5.2c0.5,0,0.9,0.4,0.9,0.9V50H253.5z"/>
	<path fill="#FF9900" d="M13.1,49.6C13.6,48.9,14,48,14,47c0-2.2-1.8-4-4-4H5v14h6c2.2,0,4-1.8,4-4C15,51.5,14.2,50.3,13.1,49.6z
		 M8,45h1.6c0.9,0,1.6,0.9,1.6,2s-0.7,2-1.6,2H8V45z M10.5,55H8v-4h2.5c0.9,0,1.7,0.9,1.7,2S11.4,55,10.5,55z"/>
	<path fill="#FF9900" d="M39.5,43v1h-2l-5,12h2v1h-7v-1h2l5-12h-2v-1H39.5z"/>
	<path fill="#FF9900" d="M86.7,49.2v-3.1c0-0.4,0.2-0.8,0.5-1.1s0.8-0.4,1.1-0.4V43c-1.8,0-3.3,1.4-3.3,3.1v2.3
		c0,0.4-0.3,0.8-0.8,0.8h-0.8v1.6h0.8c0.5,0,0.8,0.3,0.8,0.8v2.3c0,1.7,1.5,3.1,3.3,3.1v-1.6c-0.4,0-0.8-0.2-1.1-0.4
		c-0.3-0.3-0.5-0.7-0.5-1.1v-3.1c0-0.4-0.3-0.8-0.8-0.8C86.3,50,86.7,49.7,86.7,49.2L86.7,49.2z"/>
	<g>
		<path fill="#FF9900" d="M165.1,52h10v2h-10V52z M162.1,49h16v2h-16V49z M162.1,55h16v2h-16V55z"/>
		<rect x="162.1" y="43" fill="#FF9900" width="16" height="2"/>
		<rect x="165.1" y="46" fill="#FF9900" width="10" height="2"/>
	</g>
	<rect x="183.6" y="49" fill="#FF9900" width="2.3" height="2"/>
	<rect x="187" y="49" fill="#FF9900" width="2.3" height="2"/>
	<g>
		<path fill="#FF9900" d="M186.6,52h10v2h-10V52z M183.6,55h16v2h-16V55z"/>
		<rect x="183.6" y="43" fill="#FF9900" width="16" height="2"/>
		<rect x="186.6" y="46" fill="#FF9900" width="10" height="2"/>
		<rect x="190.4" y="49" fill="#FF9900" width="2.3" height="2"/>
		<rect x="193.8" y="49" fill="#FF9900" width="2.3" height="2"/>
		<rect x="197.2" y="48.9" fill="#FF9900" width="2.3" height="2"/>
	</g>
	<path fill="#FF9900" d="M93.6,50.8v3.1c0,0.4-0.2,0.8-0.5,1.1c-0.3,0.3-0.7,0.4-1.1,0.4V57c1.8,0,3.2-1.4,3.2-3.1v-2.3
		c0-0.4,0.3-0.8,0.8-0.8h0.8v-1.6h-0.8c-0.5,0-0.8-0.3-0.8-0.8v-2.3c-0.1-1.7-1.6-3.1-3.3-3.1v1.6c0.4,0,0.8,0.2,1.1,0.4
		c0.3,0.3,0.5,0.7,0.5,1.1v3.1c0,0.4,0.3,0.8,0.8,0.8C94,50,93.6,50.3,93.6,50.8L93.6,50.8z"/>
	<path fill="#FF9900" d="M118.2,44v12h-15V44H118.2 M119.2,43h-17v14h17V43L119.2,43z"/>
	<path fill="#FF9900" d="M113.9,46.8c0-0.9,0.7-1.6,1.6-1.6c0.9,0,1.6,0.7,1.6,1.6c0,0.9-0.7,1.6-1.6,1.6
		C114.7,48.4,113.9,47.7,113.9,46.8z"/>
	<polygon fill="#FF9900" points="117.1,54.8 104.4,54.8 107.5,46.2 111.8,51.6 113.9,50     "/>
	<g>
		<polygon fill="#FF9900" points="268.5,49.8 267.7,49 265,51.5 267.7,54 268.5,53.2 266.7,51.5         "/>
		<polygon fill="#FF9900" points="270.4,53.2 271.2,54 274,51.5 271.2,49 270.4,49.8 272.2,51.5         "/>
	</g>
	<polygon fill="#FF9900" points="271.3,43 271.3,47.7 276,47.7     "/>
	<path fill="#FF9900" d="M275,46.7V56h-11V44h8.3l-1-1H264c-0.6,0-1,0.5-1,1v12c0,0.5,0.4,1,1,1h11c0.5,0,1-0.5,1-1v-8.3L275,46.7z"
		/>
</g>
</svg>
