<svg xmlns="http://www.w3.org/2000/svg" viewBox="0 0 434 108" width="434" height="108" fill="none" role="img" aria-label="Verwandlung">
  <rect width="434" height="108" rx="22" fill="#0a0c0b"/>
  <g transform="translate(30 24.0) scale(0.93750)">
    <rect width="64" height="64" rx="15" fill="#34d399"/>
    <path transform="translate(20.600 44.870) scale(0.03800 -0.03800)" d="M219 0 35 730H165L275 254Q284 219 292.0 179.0Q300 139 304 114Q308 139 315.0 179.0Q322 219 330 255L439 730H565L381 0Z" fill="#06251a"/>
    <rect x="44" y="49" width="8" height="3.5" rx="1" fill="#06251a"/>
  </g>
  <g fill="#eafff5">
    <path transform="translate(114.00 70.06) scale(0.04400 -0.04400)" d="M219 0 35 730H165L275 254Q284 219 292.0 179.0Q300 139 304 114Q308 139 315.0 179.0Q322 219 330 255L439 730H565L381 0Z"/>
    <path transform="translate(140.40 70.06) scale(0.04400 -0.04400)" d="M301 -10Q231 -10 179.0 17.0Q127 44 98.5 92.5Q70 141 70 206V344Q70 409 98.5 457.5Q127 506 179.0 533.0Q231 560 301 560Q370 560 421.5 533.0Q473 506 501.5 457.5Q530 409 530 344V245H191V206Q191 148 219.0 118.5Q247 89 302 89Q344 89 370.0 103.5Q396 118 403 146H526Q512 75 450.5 32.5Q389 -10 301 -10ZM409 315V345Q409 402 382.0 432.5Q355 463 301 463Q247 463 219.0 432.0Q191 401 191 344V323L418 325Z"/>
    <path transform="translate(166.80 70.06) scale(0.04400 -0.04400)" d="M94 0V550H212V445H243L206 381Q206 470 246.0 515.0Q286 560 364 560Q453 560 504.0 505.0Q555 450 555 353V313H424V344Q424 397 396.5 426.0Q369 455 321 455Q272 455 245.5 426.0Q219 397 219 344V0Z"/>
    <path transform="translate(193.20 70.06) scale(0.04400 -0.04400)" d="M104 0 20 550H124L170 213Q174 184 177.5 149.0Q181 114 183 91Q186 114 191.0 149.0Q196 184 200 213L252 550H349L400 213Q404 184 409.0 148.5Q414 113 417 90Q419 114 423.5 149.5Q428 185 431 213L480 550H580L494 0H365L317 339Q313 367 308.0 401.5Q303 436 300 458Q297 436 292.5 401.5Q288 367 283 339L233 0Z"/>
    <path transform="translate(219.60 70.06) scale(0.04400 -0.04400)" d="M239 -10Q154 -10 105.0 35.0Q56 80 56 156Q56 237 110.0 281.0Q164 325 263 325H400V372Q400 412 374.0 434.5Q348 457 303 457Q262 457 235.0 439.0Q208 421 203 390H81Q90 468 151.0 514.0Q212 560 307 560Q408 560 466.5 509.5Q525 459 525 373V0H404V96H384L404 123Q404 62 359.0 26.0Q314 -10 239 -10ZM280 84Q333 84 366.5 111.0Q400 138 400 181V248H265Q227 248 204.0 226.0Q181 204 181 168Q181 129 207.5 106.5Q234 84 280 84Z"/>
    <path transform="translate(246.00 70.06) scale(0.04400 -0.04400)" d="M77 0V550H199V445H233L199 416Q199 484 238.5 522.0Q278 560 347 560Q428 560 476.5 506.0Q525 452 525 361V0H400V348Q400 398 374.0 425.0Q348 452 301 452Q255 452 228.5 424.0Q202 396 202 344V0Z"/>
    <path transform="translate(272.40 70.06) scale(0.04400 -0.04400)" d="M253 -10Q171 -10 120.5 47.0Q70 104 70 200V349Q70 446 120.0 503.0Q170 560 253 560Q321 560 361.0 521.5Q401 483 401 416L373 445H402L398 576V730H523V0H401V105H373L401 134Q401 67 361.0 28.5Q321 -10 253 -10ZM297 98Q345 98 371.5 126.5Q398 155 398 206V344Q398 395 371.5 423.5Q345 452 297 452Q249 452 222.0 424.0Q195 396 195 344V206Q195 154 222.0 126.0Q249 98 297 98Z"/>
    <path transform="translate(298.80 70.06) scale(0.04400 -0.04400)" d="M384 0Q330 0 289.5 22.0Q249 44 226.0 84.5Q203 125 203 178V617H27V730H328V178Q328 148 345.5 130.5Q363 113 393 113H559V0Z"/>
    <path transform="translate(325.20 70.06) scale(0.04400 -0.04400)" d="M300 -10Q195 -10 135.0 48.5Q75 107 75 208V550H200V209Q200 156 226.0 127.5Q252 99 300 99Q347 99 373.5 127.5Q400 156 400 209V550H525V208Q525 107 464.0 48.5Q403 -10 300 -10Z"/>
    <path transform="translate(351.60 70.06) scale(0.04400 -0.04400)" d="M77 0V550H199V445H233L199 416Q199 484 238.5 522.0Q278 560 347 560Q428 560 476.5 506.0Q525 452 525 361V0H400V348Q400 398 374.0 425.0Q348 452 301 452Q255 452 228.5 424.0Q202 396 202 344V0Z"/>
    <path transform="translate(378.00 70.06) scale(0.04400 -0.04400)" d="M152 -180V-76H315Q357 -76 378.0 -55.5Q399 -35 399 3V44L401 147H374L401 174Q401 107 361.5 69.5Q322 32 255 32Q171 32 121.5 89.0Q72 146 72 243V350Q72 446 121.5 503.0Q171 560 255 560Q322 560 361.5 522.5Q401 485 401 418L374 445H401L398 550H523V0Q523 -83 468.0 -131.5Q413 -180 317 -180ZM297 140Q345 140 371.5 168.5Q398 197 398 248V344Q398 395 371.5 423.5Q345 452 297 452Q249 452 223.0 424.0Q197 396 197 344V248Q197 196 223.0 168.0Q249 140 297 140Z"/>
  </g>
</svg>
